<mxfile host="app.diagrams.net" agent="Mozilla/5.0 (Windows NT 10.0; Win64; x64) AppleWebKit/537.36 (KHTML, like Gecko) Chrome/128.0.0.0 Safari/537.36 Edg/128.0.0.0" version="24.7.13">
  <diagram name="第 1 页" id="a38_5Swq0WlTmSLRdx7M">
    <mxGraphModel dx="1380" dy="866" grid="1" gridSize="10" guides="1" tooltips="1" connect="1" arrows="1" fold="1" page="1" pageScale="1" pageWidth="827" pageHeight="1169" math="0" shadow="0">
      <root>
        <mxCell id="0" />
        <mxCell id="1" parent="0" />
        <mxCell id="WPVLzmaacFLyEN168dEC-3" style="edgeStyle=orthogonalEdgeStyle;rounded=0;orthogonalLoop=1;jettySize=auto;html=1;exitX=0.5;exitY=1;exitDx=0;exitDy=0;" edge="1" parent="1" source="WPVLzmaacFLyEN168dEC-1" target="WPVLzmaacFLyEN168dEC-2">
          <mxGeometry relative="1" as="geometry" />
        </mxCell>
        <mxCell id="WPVLzmaacFLyEN168dEC-1" value="start" style="ellipse;whiteSpace=wrap;html=1;fillColor=#008a00;fontColor=#ffffff;strokeColor=#005700;" vertex="1" parent="1">
          <mxGeometry x="200" y="70" width="120" height="80" as="geometry" />
        </mxCell>
        <mxCell id="WPVLzmaacFLyEN168dEC-6" style="edgeStyle=orthogonalEdgeStyle;rounded=0;orthogonalLoop=1;jettySize=auto;html=1;exitX=0.5;exitY=1;exitDx=0;exitDy=0;entryX=0.5;entryY=0;entryDx=0;entryDy=0;" edge="1" parent="1" source="WPVLzmaacFLyEN168dEC-2" target="WPVLzmaacFLyEN168dEC-5">
          <mxGeometry relative="1" as="geometry" />
        </mxCell>
        <mxCell id="WPVLzmaacFLyEN168dEC-2" value="提交店铺id" style="whiteSpace=wrap;html=1;" vertex="1" parent="1">
          <mxGeometry x="200" y="250" width="120" height="60" as="geometry" />
        </mxCell>
        <mxCell id="WPVLzmaacFLyEN168dEC-9" value="" style="edgeStyle=orthogonalEdgeStyle;rounded=0;orthogonalLoop=1;jettySize=auto;html=1;" edge="1" parent="1" source="WPVLzmaacFLyEN168dEC-5" target="WPVLzmaacFLyEN168dEC-8">
          <mxGeometry relative="1" as="geometry" />
        </mxCell>
        <mxCell id="WPVLzmaacFLyEN168dEC-5" value="在查询Redis的id" style="whiteSpace=wrap;html=1;" vertex="1" parent="1">
          <mxGeometry x="200" y="410" width="120" height="60" as="geometry" />
        </mxCell>
        <mxCell id="WPVLzmaacFLyEN168dEC-11" value="命中" style="edgeStyle=orthogonalEdgeStyle;rounded=0;orthogonalLoop=1;jettySize=auto;html=1;exitX=0.5;exitY=1;exitDx=0;exitDy=0;" edge="1" parent="1" source="WPVLzmaacFLyEN168dEC-8" target="WPVLzmaacFLyEN168dEC-10">
          <mxGeometry relative="1" as="geometry" />
        </mxCell>
        <mxCell id="WPVLzmaacFLyEN168dEC-15" style="edgeStyle=orthogonalEdgeStyle;rounded=0;orthogonalLoop=1;jettySize=auto;html=1;exitX=1;exitY=0.5;exitDx=0;exitDy=0;" edge="1" parent="1" source="WPVLzmaacFLyEN168dEC-8" target="WPVLzmaacFLyEN168dEC-14">
          <mxGeometry relative="1" as="geometry" />
        </mxCell>
        <mxCell id="WPVLzmaacFLyEN168dEC-16" value="未命中" style="edgeLabel;html=1;align=center;verticalAlign=middle;resizable=0;points=[];" vertex="1" connectable="0" parent="WPVLzmaacFLyEN168dEC-15">
          <mxGeometry x="-0.1417" y="-2" relative="1" as="geometry">
            <mxPoint as="offset" />
          </mxGeometry>
        </mxCell>
        <mxCell id="WPVLzmaacFLyEN168dEC-8" value="缓存是否命中?" style="rhombus;whiteSpace=wrap;html=1;" vertex="1" parent="1">
          <mxGeometry x="220" y="540" width="80" height="80" as="geometry" />
        </mxCell>
        <mxCell id="WPVLzmaacFLyEN168dEC-13" style="edgeStyle=orthogonalEdgeStyle;rounded=0;orthogonalLoop=1;jettySize=auto;html=1;exitX=0.5;exitY=1;exitDx=0;exitDy=0;" edge="1" parent="1" source="WPVLzmaacFLyEN168dEC-10" target="WPVLzmaacFLyEN168dEC-12">
          <mxGeometry relative="1" as="geometry" />
        </mxCell>
        <mxCell id="WPVLzmaacFLyEN168dEC-10" value="返回数据" style="whiteSpace=wrap;html=1;" vertex="1" parent="1">
          <mxGeometry x="200" y="700" width="120" height="60" as="geometry" />
        </mxCell>
        <mxCell id="WPVLzmaacFLyEN168dEC-12" value="结束" style="ellipse;whiteSpace=wrap;html=1;fillColor=#008a00;fontColor=#ffffff;strokeColor=#005700;" vertex="1" parent="1">
          <mxGeometry x="200" y="860" width="120" height="80" as="geometry" />
        </mxCell>
        <mxCell id="WPVLzmaacFLyEN168dEC-18" value="" style="edgeStyle=orthogonalEdgeStyle;rounded=0;orthogonalLoop=1;jettySize=auto;html=1;" edge="1" parent="1" source="WPVLzmaacFLyEN168dEC-14" target="WPVLzmaacFLyEN168dEC-17">
          <mxGeometry relative="1" as="geometry" />
        </mxCell>
        <mxCell id="WPVLzmaacFLyEN168dEC-14" value="尝试获取互斥锁" style="whiteSpace=wrap;html=1;fillColor=#6a00ff;fontColor=#ffffff;strokeColor=#3700CC;" vertex="1" parent="1">
          <mxGeometry x="460" y="550" width="120" height="60" as="geometry" />
        </mxCell>
        <mxCell id="WPVLzmaacFLyEN168dEC-19" style="edgeStyle=orthogonalEdgeStyle;rounded=0;orthogonalLoop=1;jettySize=auto;html=1;exitX=0.5;exitY=0;exitDx=0;exitDy=0;entryX=1;entryY=0.5;entryDx=0;entryDy=0;" edge="1" parent="1" source="WPVLzmaacFLyEN168dEC-17" target="WPVLzmaacFLyEN168dEC-5">
          <mxGeometry relative="1" as="geometry">
            <mxPoint x="720" y="488" as="sourcePoint" />
          </mxGeometry>
        </mxCell>
        <mxCell id="WPVLzmaacFLyEN168dEC-25" value="休眠一段时间" style="edgeLabel;html=1;align=center;verticalAlign=middle;resizable=0;points=[];" vertex="1" connectable="0" parent="WPVLzmaacFLyEN168dEC-19">
          <mxGeometry x="0.1933" y="-2" relative="1" as="geometry">
            <mxPoint as="offset" />
          </mxGeometry>
        </mxCell>
        <mxCell id="WPVLzmaacFLyEN168dEC-27" style="edgeStyle=orthogonalEdgeStyle;rounded=0;orthogonalLoop=1;jettySize=auto;html=1;exitX=1;exitY=0.5;exitDx=0;exitDy=0;" edge="1" parent="1" source="WPVLzmaacFLyEN168dEC-17">
          <mxGeometry relative="1" as="geometry">
            <mxPoint x="880" y="580" as="targetPoint" />
          </mxGeometry>
        </mxCell>
        <mxCell id="WPVLzmaacFLyEN168dEC-17" value="是否获取锁成功" style="rhombus;whiteSpace=wrap;html=1;" vertex="1" parent="1">
          <mxGeometry x="680" y="540" width="80" height="80" as="geometry" />
        </mxCell>
        <mxCell id="WPVLzmaacFLyEN168dEC-24" value="失败" style="text;html=1;align=center;verticalAlign=middle;whiteSpace=wrap;rounded=0;" vertex="1" parent="1">
          <mxGeometry x="740" y="490" width="60" height="30" as="geometry" />
        </mxCell>
        <mxCell id="WPVLzmaacFLyEN168dEC-31" style="edgeStyle=orthogonalEdgeStyle;rounded=0;orthogonalLoop=1;jettySize=auto;html=1;exitX=0.5;exitY=1;exitDx=0;exitDy=0;entryX=1;entryY=0.5;entryDx=0;entryDy=0;" edge="1" parent="1" source="WPVLzmaacFLyEN168dEC-26" target="WPVLzmaacFLyEN168dEC-30">
          <mxGeometry relative="1" as="geometry" />
        </mxCell>
        <mxCell id="WPVLzmaacFLyEN168dEC-26" value="数据库中查询id" style="whiteSpace=wrap;html=1;" vertex="1" parent="1">
          <mxGeometry x="880" y="550" width="120" height="60" as="geometry" />
        </mxCell>
        <mxCell id="WPVLzmaacFLyEN168dEC-34" style="edgeStyle=orthogonalEdgeStyle;rounded=0;orthogonalLoop=1;jettySize=auto;html=1;exitX=0;exitY=0.5;exitDx=0;exitDy=0;" edge="1" parent="1" source="WPVLzmaacFLyEN168dEC-30" target="WPVLzmaacFLyEN168dEC-33">
          <mxGeometry relative="1" as="geometry" />
        </mxCell>
        <mxCell id="WPVLzmaacFLyEN168dEC-30" value="将数据缓冲到Redsi" style="whiteSpace=wrap;html=1;" vertex="1" parent="1">
          <mxGeometry x="760" y="710" width="120" height="60" as="geometry" />
        </mxCell>
        <mxCell id="WPVLzmaacFLyEN168dEC-35" style="edgeStyle=orthogonalEdgeStyle;rounded=0;orthogonalLoop=1;jettySize=auto;html=1;exitX=0;exitY=0.5;exitDx=0;exitDy=0;entryX=1;entryY=0.5;entryDx=0;entryDy=0;" edge="1" parent="1" source="WPVLzmaacFLyEN168dEC-33" target="WPVLzmaacFLyEN168dEC-10">
          <mxGeometry relative="1" as="geometry" />
        </mxCell>
        <mxCell id="WPVLzmaacFLyEN168dEC-33" value="释放锁" style="whiteSpace=wrap;html=1;fillColor=#6a00ff;fontColor=#ffffff;strokeColor=#3700CC;" vertex="1" parent="1">
          <mxGeometry x="480" y="710" width="120" height="60" as="geometry" />
        </mxCell>
      </root>
    </mxGraphModel>
  </diagram>
</mxfile>
